<svg width="160" height="169" viewBox="0 0 160 169" fill="none" xmlns="http://www.w3.org/2000/svg">
<rect width="160" height="169" fill="#3985F7"/>
<path d="M100.812 73.5L91.25 77.625V55.625L100.812 60.5625V73.5Z" fill="#1D4DA1"/>
<path d="M115.75 115.5L106.25 120.625V73.5L115.75 77.625V115.5Z" fill="#1D4DA1"/>
<path d="M77.75 17.875V29.625L81.75 27.25L131.375 56.5V113.5L83.375 140.875V56.5L73.625 52.375V136.5L32.25 112.875V55.625L54.5 43.125V31.375L22.625 50V119.625L82.125 154L141 119.5V49.875L81.75 15.5L77.75 17.875Z" fill="white"/>
<path d="M47.8125 115.125L57.625 120.5V84.5L47.8125 80V115.125Z" fill="white"/>
<path d="M70.4375 50.5L61.625 54.5V11.8125L70.4375 16.3125V50.5Z" fill="#1D4DA1"/>
</svg>
